<svg xmlns="http://www.w3.org/2000/svg" version="1.1" xmlns:xlink="http://www.w3.org/1999/xlink" xmlns:svgjs="http://svgjs.com/svgjs" height="115.67601318359375" width="258.25"><defs id="SvgjsDefs1025"></defs><g id="SvgjsG1026" rel="mainfill" name="main_text" xmlns:name="main_text" transform="translate(-0.64000004529953,-129.6739929199219)" fill="black"><path d="M3.50 226.37L3.50 236.98L6.53 240L10.67 240L14.74 238.73L13.75 235.57L10.28 236.66L8.15 236.66L7.16 235.67L7.16 226.37L11.78 226.37L11.78 223.03L7.16 223.03L7.16 218.35L3.50 218.35L3.50 223.03L0.64 223.03L0.64 226.37ZM22.57 226.05L25.34 226.05L28.21 228.86L30.63 226.37L26.87 222.71L21.59 222.71L19.74 224.84L19.14 222.39L16.17 223.13L17.16 227.17L17.16 240L20.82 240L20.82 228.06ZM36.39 222.71L32.32 223.98L33.30 227.17L36.87 226.05L41.52 226.05L42.51 227.04L42.51 229.68L35.12 229.68L32.06 232.71L32.06 236.98L35.12 240L41.74 240L43.59 237.87L44.19 240.32L47.15 239.59L46.17 235.54L46.17 225.74L43.11 222.71ZM42.51 234.65L40.75 236.66L36.71 236.66L35.72 235.67L35.72 234.01L36.71 233.03L42.51 233.03ZM56.93 235.16L56.51 233.28L52.22 222.23L48.91 223.54L55.30 240L58.68 240L65.08 223.54L61.77 222.23L57.47 233.28L57.06 235.16ZM76.76 236.66L71.80 236.66L70.81 235.67L70.81 233.31L78.48 233.31L81.22 230.61L81.22 225.74L78.17 222.71L70.21 222.71L67.15 225.74L67.15 236.98L70.21 240L77.24 240L81.32 238.73L80.33 235.54ZM71.80 226.05L76.57 226.05L77.56 227.04L77.56 229.14L76.73 229.97L70.81 229.97L70.81 227.04ZM88.61 221.02L87.30 217.08L83.86 218.22L84.95 221.47L84.95 240L88.61 240ZM112.07 236.66L106.95 236.66L105.96 235.67L105.96 227.04L106.95 226.05L111.72 226.05L112.71 227.04L112.71 229.49L116.37 229.49L116.37 225.74L113.32 222.71L105.36 222.71L102.30 225.74L102.30 236.98L105.36 240L112.52 240L116.60 238.73L115.58 235.54ZM133.37 236.94L133.37 225.77L130.35 222.71L122.17 222.71L119.14 225.77L119.14 236.94L122.17 240L130.35 240ZM123.79 236.66L122.80 235.67L122.80 227.04L123.79 226.05L128.73 226.05L129.71 227.04L129.71 235.67L128.73 236.66ZM147.26 222.71L141.97 222.71L140.12 224.84L139.52 222.39L136.56 223.13L137.55 227.17L137.55 240L141.21 240L141.21 228.06L142.96 226.05L145.89 226.05L147.07 227.33L147.07 240L150.73 240L150.73 227.33L151.91 226.05L155.60 226.05L156.59 227.04L156.59 240L160.25 240L160.25 225.74L157.19 222.71L150.57 222.71L148.91 224.53ZM169.83 226.05L173.84 226.05L174.83 227.04L174.83 235.67L173.84 236.66L170.12 236.66L168.08 235.19L168.08 228.06ZM168.84 222.71L167.00 224.84L166.39 222.39L163.43 223.13L164.42 227.17L164.42 245.35L168.08 245.35L168.08 238.76L169.80 240L175.43 240L178.49 236.98L178.49 225.74L175.43 222.71ZM186.01 222.71L181.93 223.98L182.92 227.17L186.48 226.05L191.13 226.05L192.12 227.04L192.12 229.68L184.73 229.68L181.68 232.71L181.68 236.98L184.73 240L191.35 240L193.20 237.87L193.81 240.32L196.77 239.59L195.78 235.54L195.78 225.74L192.72 222.71ZM192.12 234.65L190.37 236.66L186.32 236.66L185.34 235.67L185.34 234.01L186.32 233.03L192.12 233.03ZM200.62 227.17L200.62 240L204.28 240L204.28 228.06L206.03 226.05L210.08 226.05L211.06 227.04L211.06 240L214.72 240L214.72 225.74L211.67 222.71L205.05 222.71L203.20 224.84L202.59 222.39L199.63 223.13ZM222.65 226.34L221.35 222.39L217.91 223.54L218.99 226.79L218.99 240L222.65 240ZM219.95 220.74L221.70 220.74L222.88 219.56L222.88 217.81L221.70 216.63L219.95 216.63L218.77 217.81L218.77 219.56ZM240.61 236.94L240.61 225.77L237.59 222.71L229.40 222.71L226.38 225.77L226.38 236.94L229.40 240L237.59 240ZM231.03 236.66L230.04 235.67L230.04 227.04L231.03 226.05L235.96 226.05L236.95 227.04L236.95 235.67L235.96 236.66ZM244.78 227.17L244.78 240L248.44 240L248.44 228.06L250.19 226.05L254.24 226.05L255.22 227.04L255.22 240L258.89 240L258.89 225.74L255.83 222.71L249.21 222.71L247.36 224.84L246.75 222.39L243.79 223.13Z" fill="black" style="fill: black;"></path></g><g id="SvgjsG1027" rel="mainfill" name="symbol" xmlns:name="symbol_mainfill" transform="translate(88.97927627563476,-4.182399749755859) scale(0.8)" fill="black"><circle cx="50.0115967" cy="33.1982651" r="10.2745008"></circle><ellipse transform="matrix(-0.5843659 0.8114903 -0.8114903 -0.5843659 119.237587 -19.6136875)" cx="64.6417236" cy="20.7290764" rx="6.1090407" ry="8.8314695"></ellipse><path d="M72.8996124,17.3064728c2.666748,1.8195763,5.6057663,2.1586323,6.5647583,0.7546539  c0.9620514-1.4055042-0.4176102-4.0253134-3.0801086-5.8463621c-2.6683884-1.8216496-5.6058807-2.1593409-6.5692368-0.7531281  C68.8558197,12.865778,70.2355881,15.4839516,72.8996124,17.3064728z" fill="black" style="fill: black;"></path><path d="M49.3540955,12.865778c3.996582,0.0536461,7.260643-1.6115322,7.2899742-3.7149906  c0.0280228-2.1086378-3.1875191-3.8656812-7.1811562-3.9215636c-3.9994164-0.0528288-7.260643,1.6108232-7.2929192,3.7207694  C42.1449165,11.0542145,45.3589287,12.8120222,49.3540955,12.865778z" fill="black" style="fill: black;"></path><path d="M28.1121197,25.9784546c1.9710865,2.7381706,6.7795658,2.6455421,10.7365665-0.2029209  c3.9597282-2.8522243,5.5688057-7.3804779,3.5978317-10.1201744c-1.9740334-2.7389879-6.7810936-2.6461964-10.7378788,0.2045565  C27.7488041,18.706852,26.139616,23.2388668,28.1121197,25.9784546z" fill="black" style="fill: black;"></path><path d="M27.2193146,17.5947704c2.6653328-1.8231211,4.0451031-4.4406958,3.0860023-5.8456001  c-0.96488-1.4060488-3.9023724-1.0677576-6.5678158,0.7531281c-2.663805,1.8218126-4.0435772,4.4401493-3.0816402,5.847126  C21.6149616,19.7534008,24.5538712,19.4143467,27.2193146,17.5947704z" fill="black" style="fill: black"></path><circle cx="33.178833" cy="50.031002" r="10.2750406"></circle><ellipse transform="matrix(-0.811483 0.584376 -0.584376 -0.811483 75.3010483 105.0289764)" cx="20.7095947" cy="64.6603699" rx="6.1096339" ry="8.8321218"></ellipse><path d="M11.5096169,69.7685776c-1.4062672,0.9626389-1.0694485,3.9008942,0.7531281,6.5677032  c1.8210487,2.663208,4.4391689,4.042923,5.8454361,3.0810394c1.4034309-0.9591522,1.0650864-3.8980103-0.7546558-6.5648117  C15.531168,70.1877747,12.9128313,68.8095856,11.5096169,69.7685776z" fill="black" style="fill: black;"></path><path d="M12.8467541,49.3739357c-0.0545197-3.9959259-1.8124352-7.2099419-3.9156761-7.1842079  c-2.1108727,0.032383-3.7745795,3.2934494-3.7201691,7.2922096c0.0545192,3.9936943,1.812326,7.2092323,3.9215631,7.1819725  C11.2359304,56.6345253,12.9010553,53.3697548,12.8467541,49.3739357z" fill="black" style="fill: black;"></path><path d="M15.6355181,42.4655418c2.7404604,1.9718475,7.2679491,0.3619499,10.1217012-3.597229  c2.8477535-3.9574928,2.9404354-8.7660828,0.2013931-10.7371693c-2.7403507-1.9717941-7.2708931-0.3625526-10.1185389,3.5964661  C12.9893761,35.685318,12.8980017,40.4923286,15.6355181,42.4655418z" fill="black" style="fill: black;"></path><path d="M17.5757465,27.2389927c1.8181038-2.6660423,2.1578674-5.6050606,0.7531281-6.5640545  c-1.4062672-0.9612808-4.0244961,0.4178352-5.8454361,3.0816422c-1.8211584,2.6654415-2.1593952,5.6042976-0.7532368,6.5671062  C13.1335249,31.2826786,15.7517529,29.9044876,17.5757465,27.2389927z" fill="black" style="fill: black;"></path><path d="M57.6163635,74.4690018c4.0113029-4.0120697,4.0143547-10.5195312,0.0030556-14.5323067  c-4.0128288-4.0126648-10.5217628-4.0105362-14.5343742,0.0015297c-4.0128288,4.0127716-4.0113029,10.5187073,0.0013084,14.5315399  C47.0991821,78.4817734,53.603756,78.4817734,57.6163635,74.4690018z" fill="black" style="fill: black;"></path><ellipse transform="matrix(0.5844578 -0.8114241 0.8114241 0.5844578 -49.8044281 62.093277)" cx="35.722168" cy="79.6728821" rx="6.1095729" ry="8.8321686"></ellipse><path d="M27.5296364,83.0283966c-2.6668587-1.819519-5.6058788-2.158577-6.5648708-0.7546005  c-0.9620438,1.4062119,0.4178352,4.0252609,3.0816422,5.8463669c2.6668587,1.8218079,5.604351,2.1593399,6.5679226,0.7538376  C31.5733242,87.4693146,30.1936607,84.850975,27.5296364,83.0283966z" fill="black" style="fill: black;"></path><path d="M51.0073318,87.5353851c-3.9949455-0.0535889-7.2604256,1.6114273-7.2883377,3.7156448  c-0.0280228,2.1078262,3.1875153,3.8656311,7.1810455,3.9207458c3.999527,0.0530472,7.2591171-1.6098404,7.2916107-3.7199478  C58.2180367,89.3476028,55.0039139,87.589798,51.0073318,87.5353851z" fill="black" style="fill: black;"></path><path d="M72.2508316,74.4233627c-1.9710846-2.7388229-6.7795639-2.6461945-10.7378731,0.2030334  c-3.9583092,2.8514633-5.5676079,7.3804779-3.5949936,10.1200638c1.9725037,2.7381744,6.7780418,2.6463089,10.7363472-0.2051544  C72.614151,81.695076,74.2233353,77.163063,72.2508316,74.4233627z" fill="black" style="fill: black;"></path><path d="M73.0980606,82.7622375c-2.665329,1.8231735-4.04216,4.4415131-3.0829468,5.8454895  c0.961937,1.4062119,3.9008484,1.0679169,6.5661774-0.7531281c2.6639175-1.8210526,4.04216-4.4399872,3.0816422-5.846199  C78.7039413,80.6042557,75.7649231,80.9433136,73.0980606,82.7622375z" fill="black" style="fill: black;"></path><circle cx="67.1842041" cy="50.3700562" r="10.2750788"></circle><path d="M84.6096725,32.1704674c-2.8461151-3.9597797-7.3781815-5.5690765-10.1171188-3.5964642  c-2.7388229,1.9710846-2.6476669,6.7788563,0.2030258,10.7379322c2.8508072,3.9567261,7.3812408,5.5682602,10.1200714,3.5956993  C87.5545807,40.9350243,87.4618988,36.1280136,84.6096725,32.1704674z" fill="black" style="fill: black;"></path><path d="M88.921051,30.5670605c1.4062653-0.9634094,1.0679245-3.9016094-0.7545471-6.56847  c-1.8209381-2.6631508-4.4392776-4.04216-5.8455429-3.0808773c-1.4033203,0.9590473-1.0648651,3.8980656,0.7546539,6.5648708  C84.8979721,30.1471539,87.5164185,31.5253429,88.921051,30.5670605z" fill="black" style="fill: black;"></path><path d="M91.2320099,43.738018c-2.103569,0.0286217-3.768692,3.2934494-3.7155914,7.2892113  c0.0529938,3.9965286,1.8121109,7.2105408,3.9155655,7.1840439c2.110878-0.0322189,3.7744751-3.2926292,3.7214813-7.2922096  C95.0976334,46.9255333,93.3398285,43.7099953,91.2320099,43.738018z" fill="black" style="fill: black;"></path><path d="M74.4043427,72.2698593c2.7389297,1.9726105,7.2708893,0.3633118,10.1171188-3.5964661  c2.8508072-3.95755,2.9449081-8.7637939,0.2059784-10.7371674c-2.7403564-1.9717941-7.269371-0.3617897-10.1200714,3.597229  C71.7580872,65.4909973,71.6655197,70.2995377,74.4043427,72.2698593z" fill="black" style="fill: black;"></path><path d="M82.7431564,73.1186676c-1.819519,2.6652756-2.1579742,5.6050034-0.7545471,6.5640564  c1.4061584,0.9612808,4.0259171-0.4184418,5.8468552-3.0824051c1.8211594-2.6652832,2.1593933-5.6035385,0.7532349-6.5669479  C87.1838531,69.074379,84.5656204,70.4525681,82.7431564,73.1186676z" fill="black" style="fill: black;"></path></g></svg>
