<?xml version="1.0" standalone="no"?>
<!DOCTYPE svg PUBLIC "-//W3C//DTD SVG 20010904//EN"
 "http://www.w3.org/TR/2001/REC-SVG-20010904/DTD/svg10.dtd">
<svg version="1.0" xmlns="http://www.w3.org/2000/svg"
 width="1280.000000pt" height="1280.000000pt" viewBox="0 0 1280.000000 1280.000000"
 preserveAspectRatio="xMidYMid meet">
<metadata>
Created by potrace 1.15, written by Peter Selinger 2001-2017
</metadata>
<g transform="translate(0.000000,1280.000000) scale(0.100000,-0.100000)"
fill="#000000" stroke="none">
<path d="M6095 12794 c-1243 -66 -2411 -471 -3404 -1179 -1337 -954 -2254
-2373 -2570 -3975 -85 -429 -115 -756 -115 -1240 0 -403 11 -571 60 -910 280
-1954 1440 -3660 3160 -4648 792 -455 1662 -727 2619 -819 252 -24 858 -24
1110 0 839 81 1583 291 2297 648 1681 841 2903 2361 3357 4177 77 306 134 645
168 997 24 252 24 858 0 1110 -82 854 -292 1591 -662 2325 -617 1223 -1606
2213 -2824 2829 -738 373 -1491 588 -2326 666 -162 15 -716 27 -870 19z m830
-1278 c675 -75 1264 -251 1840 -550 945 -491 1710 -1256 2201 -2201 185 -356
354 -806 428 -1138 l7 -28 -33 17 c-295 151 -805 469 -1029 640 -182 139 -215
176 -343 378 -328 519 -515 720 -801 861 -105 52 -288 117 -405 145 -54 13
-428 150 -565 208 -38 16 -95 45 -125 64 -163 105 -505 242 -840 338 -206 58
-260 68 -455 81 -465 30 -777 -37 -1078 -234 -119 -78 -766 -597 -1020 -819
-42 -37 -81 -68 -85 -68 -10 0 -1332 1270 -1332 1279 0 21 353 257 572 383
668 383 1410 603 2233 662 123 9 699 -4 830 -18z m42 -1545 c40 -11 141 -48
225 -82 221 -88 418 -152 618 -199 1000 -239 1327 -432 1705 -1008 198 -302
482 -535 1030 -842 167 -94 571 -295 823 -411 108 -50 231 -109 273 -132 l77
-41 5 -215 c4 -228 12 -272 62 -371 58 -115 178 -199 318 -222 l69 -11 -7 -36
c-19 -104 -135 -356 -267 -585 l-63 -109 -100 -44 c-457 -202 -915 -308 -1580
-364 -194 -17 -939 -17 -1185 -1 -318 21 -576 42 -830 67 -576 58 -1159 18
-1623 -111 -1114 -308 -1758 -1177 -1961 -2645 -23 -167 -40 -335 -32 -314 3
6 23 69 46 140 351 1106 909 1859 1673 2260 173 90 513 221 557 213 17 -3
2710 -2584 2710 -2597 0 -4 -51 -44 -112 -88 -666 -478 -1430 -788 -2238 -908
-434 -65 -953 -72 -1375 -19 -1046 131 -1991 553 -2775 1240 -931 815 -1545
1958 -1706 3177 -14 110 -45 450 -41 453 1 1 61 32 132 69 1119 586 2113 1277
3069 2134 150 134 488 445 691 636 572 538 829 743 1091 873 204 102 293 123
499 118 115 -3 167 -9 222 -25z m-4177 -1201 c289 -276 558 -535 598 -574 l73
-72 -243 -231 c-467 -443 -789 -716 -1245 -1055 -215 -160 -694 -498 -707
-498 -13 0 1 415 19 584 93 852 358 1596 823 2308 l77 117 40 -38 c22 -21 276
-264 565 -541z m9223 -1751 c101 -115 156 -230 172 -363 l8 -59 -47 6 c-116
16 -196 79 -237 186 -18 45 -23 84 -27 205 l-5 150 42 -33 c23 -19 65 -60 94
-92z m-618 -1841 c-16 -80 -110 -393 -157 -522 -138 -382 -337 -776 -563
-1113 l-61 -92 -710 680 c-390 374 -733 705 -763 734 l-54 54 284 0 c383 0
680 22 1003 76 246 42 639 122 826 169 96 24 181 44 188 45 10 1 12 -8 7 -31z"/>
<path d="M5909 9232 c-229 -150 -371 -476 -435 -1002 -26 -207 -26 -746 -1
-908 85 -545 367 -840 944 -988 128 -32 378 -78 573 -104 130 -18 333 -16 413
3 171 42 276 138 326 301 25 82 27 242 10 900 -15 576 2 768 96 1111 95 344
106 418 86 570 -17 121 -21 128 -62 85 -109 -117 -251 -415 -338 -714 -110
-376 -140 -666 -122 -1201 5 -135 -21 -338 -53 -416 -44 -110 -123 -172 -258
-204 -179 -41 -478 -39 -638 6 -251 69 -457 265 -571 543 -180 437 -168 1099
34 1905 18 72 30 131 27 130 -3 0 -17 -8 -31 -17z"/>
<path d="M8945 8816 c-123 -59 -230 -155 -348 -315 -81 -109 -85 -97 48 -160
163 -78 306 -113 456 -113 162 1 254 39 297 122 41 81 7 172 -111 296 -76 81
-232 204 -257 204 -9 0 -47 -15 -85 -34z"/>
</g>
</svg>
